<?xml version="1.0" encoding="UTF-8" standalone="no"?>
<!DOCTYPE svg PUBLIC "-//W3C//DTD SVG 1.1//EN" "http://www.w3.org/Graphics/SVG/1.1/DTD/svg11.dtd">
<svg version="1.1" xmlns="http://www.w3.org/2000/svg" xmlns:xlink="http://www.w3.org/1999/xlink" preserveAspectRatio="xMidYMid meet" viewBox="0 0 640 640" width="640" height="640"><defs><path d="M640 320C640 496.61 496.61 640 320 640C143.39 640 0 496.61 0 320C0 143.39 143.39 0 320 0C496.61 0 640 143.39 640 320Z" id="jetkBU6EE"></path><path d="M520 315.38C520 425.76 430.38 515.38 320 515.38C209.62 515.38 120 425.76 120 315.38C120 204.99 209.62 115.38 320 115.38C430.38 115.38 520 204.99 520 315.38Z" id="lug3JwNzz"></path><path d="M464 315.38C464 394.85 399.48 459.38 320 459.38C240.52 459.38 176 394.85 176 315.38C176 235.9 240.52 171.38 320 171.38C399.48 171.38 464 235.9 464 315.38Z" id="e2uOPrT9Y"></path><path d="M520 459.38L558.32 486.32L520 515.38L320 515.38L120 515.38L120 456L176 456L520 459.38Z" id="a2TdlyfBGo"></path><path d="M325.05 456L349.47 485.69L325.05 515.38L293.89 515.38L325.05 485.69L293.89 456L325.05 456Z" id="a4s3HIVLKx"></path><path d="M487.87 262.82C487.87 318.41 442.43 363.54 386.46 363.54C330.49 363.54 285.05 318.41 285.05 262.82C285.05 207.23 330.49 162.11 386.46 162.11C442.43 162.11 487.87 207.23 487.87 262.82Z" id="azzLmBXeV"></path><path d="M461.47 262.82C461.47 303.95 427.87 337.35 386.47 337.35C345.08 337.35 311.47 303.95 311.47 262.82C311.47 221.69 345.08 188.29 386.47 188.29C427.87 188.29 461.47 221.69 461.47 262.82Z" id="aDQGm8zwJ"></path><path d="M316.63 144.42L339.16 171.38L316.63 171.38L293.89 144.42L316.63 115.38L339.16 115.38L316.63 144.42Z" id="b5dCf0KOy"></path><path d="M148.54 318.92L175.84 300.21L176 325.47L148.7 343.33L120.42 325.83L120.26 300.57L148.54 318.92Z" id="aOskracEi"></path><path d="M343.04 323.52L343.04 337.35L323.94 341.49L311.47 331.33L332.24 328.99L328.09 311.01L343.04 323.52Z" id="bohiEUYTh"></path></defs><g><g><g><use xlink:href="#jetkBU6EE" opacity="1" fill="#05445e" fill-opacity="1"></use></g><g><use xlink:href="#lug3JwNzz" opacity="1" fill="#d4f1f4" fill-opacity="1"></use><g><use xlink:href="#lug3JwNzz" opacity="1" fill-opacity="0" stroke="#ffffff" stroke-width="0" stroke-opacity="1"></use></g></g><g><use xlink:href="#e2uOPrT9Y" opacity="1" fill="#189ab4" fill-opacity="1"></use><g><use xlink:href="#e2uOPrT9Y" opacity="1" fill-opacity="0" stroke="#ffffff" stroke-width="0" stroke-opacity="1"></use></g></g><g><use xlink:href="#a2TdlyfBGo" opacity="1" fill="#d4f1f4" fill-opacity="1"></use><g><use xlink:href="#a2TdlyfBGo" opacity="1" fill-opacity="0" stroke="#5c71c8" stroke-width="0" stroke-opacity="1"></use></g></g><g><use xlink:href="#a4s3HIVLKx" opacity="1" fill="#189ab4" fill-opacity="1"></use><g><use xlink:href="#a4s3HIVLKx" opacity="1" fill-opacity="0" stroke="#5c71c8" stroke-width="0" stroke-opacity="1"></use></g></g><g><use xlink:href="#azzLmBXeV" opacity="1" fill="#d4f1f4" fill-opacity="1"></use></g><g><use xlink:href="#aDQGm8zwJ" opacity="1" fill="#189ab4" fill-opacity="1"></use></g><g><use xlink:href="#b5dCf0KOy" opacity="1" fill="#189ab4" fill-opacity="1"></use><g><use xlink:href="#b5dCf0KOy" opacity="1" fill-opacity="0" stroke="#5c71c8" stroke-width="0" stroke-opacity="1"></use></g></g><g><use xlink:href="#aOskracEi" opacity="1" fill="#189ab4" fill-opacity="1"></use><g><use xlink:href="#aOskracEi" opacity="1" fill-opacity="0" stroke="#5c71c8" stroke-width="0" stroke-opacity="1"></use></g></g><g><use xlink:href="#bohiEUYTh" opacity="1" fill="#189ab4" fill-opacity="1"></use><g><use xlink:href="#bohiEUYTh" opacity="1" fill-opacity="0" stroke="#5c71c8" stroke-width="0" stroke-opacity="1"></use></g></g></g></g></svg>