<?xml version="1.0" encoding="UTF-8" standalone="no"?>
<!DOCTYPE svg PUBLIC "-//W3C//DTD SVG 1.1//EN" "http://www.w3.org/Graphics/SVG/1.1/DTD/svg11.dtd">
<svg version="1.1" xmlns="http://www.w3.org/2000/svg" xmlns:xlink="http://www.w3.org/1999/xlink" preserveAspectRatio="xMidYMid meet" viewBox="0 0 640 640" width="640" height="640"><defs><path d="M640 322.34C640 498.96 496.61 642.34 320 642.34C143.39 642.34 0 498.96 0 322.34C0 145.73 143.39 2.34 320 2.34C496.61 2.34 640 145.73 640 322.34Z" id="gwicqEMmR"></path><path d="M575.66 320C575.66 461.21 464.78 575.86 328.2 575.86C191.63 575.86 80.75 461.21 80.75 320C80.75 178.79 191.63 64.14 328.2 64.14C464.78 64.14 575.66 178.79 575.66 320Z" id="b21m6MOVRg"></path><path d="M482.33 314.53C482.33 396.63 414.5 463.28 330.94 463.28C247.38 463.28 179.54 396.63 179.54 314.53C179.54 232.43 247.38 165.78 330.94 165.78C414.5 165.78 482.33 232.43 482.33 314.53Z" id="ajVu8XHlm"></path><path d="M320 454.77L320 589.14L241.31 569.61L165.53 523.52L121 463.28L206.16 463.28L212.41 398.52L320 454.77Z" id="d5VRfGMF6B"></path><path d="M391.84 252.36C391.1 249.85 377.74 243.91 351.77 234.54C318.54 228.88 299.44 234.82 294.46 252.36C286.98 278.66 306.08 284.6 344.29 294.79C363.97 300.03 396.24 311.78 409.08 336.79C421.17 360.35 414.87 396.99 400.77 409.34C371.7 434.8 337.65 435.65 310.24 429.71C291.96 425.75 270.37 413.87 245.45 394.07L268.71 365.22L306.91 388.98C342.35 400.29 365.06 395.76 375.02 375.4C384.99 355.03 369.76 340.61 329.34 332.12C267.88 318.55 242.41 291.96 252.93 252.36C268.71 192.96 320.2 196.36 341.8 196.36C356.2 196.36 378.62 204.84 409.08 221.81C399.24 247.83 393.5 258.02 391.84 252.36Z" id="a8eDRB4nd1"></path></defs><g><g><g><use xlink:href="#gwicqEMmR" opacity="1" fill="#ffffff" fill-opacity="1"></use></g><g><use xlink:href="#b21m6MOVRg" opacity="1" fill="#05445e" fill-opacity="1"></use><g><use xlink:href="#b21m6MOVRg" opacity="1" fill-opacity="0" stroke="#ffffff" stroke-width="0" stroke-opacity="1"></use></g></g><g><use xlink:href="#ajVu8XHlm" opacity="1" fill="#ffffff" fill-opacity="1"></use><g><use xlink:href="#ajVu8XHlm" opacity="1" fill-opacity="0" stroke="#ffffff" stroke-width="0" stroke-opacity="1"></use></g></g><g><use xlink:href="#d5VRfGMF6B" opacity="1" fill="#ffffff" fill-opacity="1"></use><g><use xlink:href="#d5VRfGMF6B" opacity="1" fill-opacity="0" stroke="#000000" stroke-width="0" stroke-opacity="1"></use></g></g><g><use xlink:href="#a8eDRB4nd1" opacity="1" fill="#174e59" fill-opacity="1"></use><g><use xlink:href="#a8eDRB4nd1" opacity="1" fill-opacity="0" stroke="#000000" stroke-width="0" stroke-opacity="1"></use></g></g></g></g></svg>